Coordinates
version=1
nRows=32
nColumns=12
inDegrees=yes

Units are S.I. units (second, meters, Newtons, ...)
Angles are in degrees

endheader
time	SC_y	SC_z	SC_x	AC_y	AC_z	AC_x	GH_y	GH_z	GH_yy	EL_x	PS_y
       0.0              -31.13          25.68         0.2067          59.62         -5.178         -16.99           24.4          45.62          57.46          43.97          6.118
   0.03329              -31.13          25.68          0.208          59.62          -5.18         -16.99           24.4          45.61          57.43          43.97          6.126
   0.06657              -31.12          25.68         0.2094          59.62         -5.182         -16.98           24.4           45.6           57.4          43.97          6.134
   0.09986              -31.12          25.68         0.2109          59.62         -5.184         -16.98           24.4           45.6          57.36          43.96          6.142
    0.1331              -31.12          25.68         0.2125          59.61         -5.187         -16.98           24.4          45.59          57.33          43.96          6.151
    0.1664              -31.11          25.68         0.2143          59.61         -5.189         -16.97           24.4          45.58          57.29          43.96           6.16
    0.1997              -31.11          25.69         0.2161          59.61         -5.192         -16.97           24.4          45.57          57.25          43.95           6.17
     0.233              -31.11          25.69         0.2181          59.61         -5.195         -16.96           24.4          45.56          57.21          43.95          6.181
    0.2663               -31.1          25.69         0.2202           59.6         -5.198         -16.96           24.4          45.55          57.16          43.94          6.192
    0.2996               -31.1          25.69         0.2224           59.6         -5.201         -16.95           24.4          45.54          57.11          43.94          6.204
    0.3329               -31.1          25.69         0.2248          59.59         -5.205         -16.95          24.39          45.52          57.06          43.93          6.218
    0.3661              -31.09          25.69         0.2274          59.59         -5.209         -16.94          24.39          45.51           57.0          43.93          6.232
    0.3994              -31.09           25.7         0.2302          59.59         -5.213         -16.94          24.39           45.5          56.94          43.92          6.247
    0.4327              -31.08           25.7         0.2333          59.58         -5.217         -16.93          24.39          45.48          56.87          43.91          6.264
     0.466              -31.07           25.7         0.2365          59.58         -5.222         -16.92          24.39          45.46           56.8          43.91          6.282
    0.4993              -31.07           25.7         0.2401          59.57         -5.227         -16.91          24.39          45.45          56.72           43.9          6.301
    0.5326              -31.06          25.71          0.244          59.56         -5.233          -16.9          24.39          45.43          56.64          43.89          6.322
    0.5659              -31.05          25.71         0.2482          59.56         -5.239         -16.89          24.38           45.4          56.54          43.88          6.345
    0.5991              -31.04          25.71         0.2528          59.55         -5.246         -16.88          24.38          45.38          56.44          43.87           6.37
    0.6324              -31.03          25.72         0.2578          59.54         -5.254         -16.87          24.38          45.36          56.33          43.86          6.398
    0.6657              -31.02          25.72         0.2633          59.53         -5.262         -16.86          24.38          45.33          56.21          43.85          6.428
     0.699              -31.01          25.73         0.2694          59.52         -5.271         -16.85          24.37           45.3          56.08          43.83          6.461
    0.7323               -31.0          25.73         0.2762          59.51         -5.281         -16.83          24.37          45.26          55.93          43.82          6.498
    0.7656              -30.99          25.74         0.2836           59.5         -5.292         -16.81          24.37          45.22          55.76           43.8          6.538
    0.7988              -30.97          25.74         0.2919          59.49         -5.304         -16.79          24.36          45.18          55.58          43.78          6.584
    0.8321              -30.95          25.75         0.3011          59.47         -5.318         -16.77          24.36          45.13          55.38          43.76          6.634
    0.8654              -30.94          25.76         0.3115          59.46         -5.333         -16.75          24.35          45.08          55.15          43.74           6.69
    0.8987              -30.91          25.76         0.3231          59.44          -5.35         -16.72          24.35          45.02          54.89          43.71          6.754
     0.932              -30.89          25.77         0.3363          59.42          -5.37         -16.69          24.34          44.95           54.6          43.68          6.826
    0.9653              -30.86          25.78         0.3512          59.39         -5.392         -16.66          24.33          44.88          54.28          43.65          6.907
    0.9986              -30.83           25.8         0.3683          59.37         -5.417         -16.62          24.33          44.79           53.9          43.61            7.0
     1.032              -30.79          25.81         0.3878          59.34         -5.446         -16.57          24.32          44.69          53.47          43.57          7.107
